<mxfile host="Electron" agent="Mozilla/5.0 (Windows NT 10.0; Win64; x64) AppleWebKit/537.36 (KHTML, like Gecko) draw.io/26.2.2 Chrome/134.0.6998.178 Electron/35.1.2 Safari/537.36" version="26.2.2">
  <diagram id="C5RBs43oDa-KdzZeNtuy" name="Page-1">
    <mxGraphModel dx="1428" dy="841" grid="1" gridSize="10" guides="1" tooltips="1" connect="1" arrows="1" fold="1" page="1" pageScale="1" pageWidth="827" pageHeight="1169" math="0" shadow="0">
      <root>
        <mxCell id="WIyWlLk6GJQsqaUBKTNV-0" />
        <mxCell id="WIyWlLk6GJQsqaUBKTNV-1" parent="WIyWlLk6GJQsqaUBKTNV-0" />
        <mxCell id="EtcYKkJQAjZfh5iCqZ98-37" value="" style="edgeStyle=orthogonalEdgeStyle;rounded=0;orthogonalLoop=1;jettySize=auto;html=1;" edge="1" parent="WIyWlLk6GJQsqaUBKTNV-1" source="EtcYKkJQAjZfh5iCqZ98-6" target="EtcYKkJQAjZfh5iCqZ98-31">
          <mxGeometry relative="1" as="geometry" />
        </mxCell>
        <mxCell id="EtcYKkJQAjZfh5iCqZ98-6" value="&lt;span style=&quot;background-color: rgb(0, 0, 0);&quot;&gt;Database&lt;br&gt;Postgress&lt;/span&gt;" style="image;sketch=0;aspect=fixed;html=1;points=[];align=center;fontSize=12;image=img/lib/mscae/Azure_Database_for_PostgreSQL_servers.svg;" vertex="1" parent="WIyWlLk6GJQsqaUBKTNV-1">
          <mxGeometry x="112.4" y="560" width="53.2" height="70" as="geometry" />
        </mxCell>
        <mxCell id="EtcYKkJQAjZfh5iCqZ98-18" value="" style="edgeStyle=orthogonalEdgeStyle;rounded=0;orthogonalLoop=1;jettySize=auto;html=1;" edge="1" parent="WIyWlLk6GJQsqaUBKTNV-1" source="EtcYKkJQAjZfh5iCqZ98-7" target="EtcYKkJQAjZfh5iCqZ98-17">
          <mxGeometry relative="1" as="geometry" />
        </mxCell>
        <mxCell id="EtcYKkJQAjZfh5iCqZ98-7" value="Alexa" style="outlineConnect=0;dashed=0;verticalLabelPosition=bottom;verticalAlign=top;align=center;html=1;shape=mxgraph.aws3.alexa_voice_service;fillColor=#5294CF;gradientColor=none;" vertex="1" parent="WIyWlLk6GJQsqaUBKTNV-1">
          <mxGeometry x="503" y="835" width="50" height="50" as="geometry" />
        </mxCell>
        <mxCell id="EtcYKkJQAjZfh5iCqZ98-58" value="" style="edgeStyle=orthogonalEdgeStyle;rounded=0;orthogonalLoop=1;jettySize=auto;html=1;" edge="1" parent="WIyWlLk6GJQsqaUBKTNV-1" source="EtcYKkJQAjZfh5iCqZ98-8" target="EtcYKkJQAjZfh5iCqZ98-57">
          <mxGeometry relative="1" as="geometry" />
        </mxCell>
        <mxCell id="EtcYKkJQAjZfh5iCqZ98-8" value="Aplicação Web&lt;br&gt;para inserção &lt;br&gt;Manual" style="image;sketch=0;aspect=fixed;html=1;points=[];align=center;fontSize=12;image=img/lib/mscae/CustomDomain.svg;" vertex="1" parent="WIyWlLk6GJQsqaUBKTNV-1">
          <mxGeometry x="284.50000000000006" y="380" width="71.43" height="60" as="geometry" />
        </mxCell>
        <mxCell id="EtcYKkJQAjZfh5iCqZ98-16" value="" style="edgeStyle=orthogonalEdgeStyle;rounded=0;orthogonalLoop=1;jettySize=auto;html=1;entryX=0;entryY=0.5;entryDx=0;entryDy=0;entryPerimeter=0;" edge="1" parent="WIyWlLk6GJQsqaUBKTNV-1" source="EtcYKkJQAjZfh5iCqZ98-10" target="EtcYKkJQAjZfh5iCqZ98-7">
          <mxGeometry relative="1" as="geometry">
            <Array as="points">
              <mxPoint x="410" y="860" />
            </Array>
          </mxGeometry>
        </mxCell>
        <mxCell id="EtcYKkJQAjZfh5iCqZ98-10" value="Trabalhador" style="image;sketch=0;aspect=fixed;html=1;points=[];align=center;fontSize=12;image=img/lib/mscae/Person.svg;" vertex="1" parent="WIyWlLk6GJQsqaUBKTNV-1">
          <mxGeometry x="388" y="877" width="44.4" height="60" as="geometry" />
        </mxCell>
        <mxCell id="EtcYKkJQAjZfh5iCqZ98-42" value="" style="edgeStyle=orthogonalEdgeStyle;rounded=0;orthogonalLoop=1;jettySize=auto;html=1;" edge="1" parent="WIyWlLk6GJQsqaUBKTNV-1" source="EtcYKkJQAjZfh5iCqZ98-11" target="EtcYKkJQAjZfh5iCqZ98-12">
          <mxGeometry relative="1" as="geometry" />
        </mxCell>
        <mxCell id="EtcYKkJQAjZfh5iCqZ98-11" value="Lambda" style="sketch=0;aspect=fixed;pointerEvents=1;shadow=0;dashed=0;html=1;strokeColor=#006EAF;labelPosition=center;verticalLabelPosition=bottom;verticalAlign=top;align=center;fillColor=#1ba1e2;shape=mxgraph.azure.script_file;fontColor=default;" vertex="1" parent="WIyWlLk6GJQsqaUBKTNV-1">
          <mxGeometry x="725.0000000000001" y="835" width="47" height="50" as="geometry" />
        </mxCell>
        <mxCell id="EtcYKkJQAjZfh5iCqZ98-25" value="" style="edgeStyle=orthogonalEdgeStyle;rounded=0;orthogonalLoop=1;jettySize=auto;html=1;" edge="1" parent="WIyWlLk6GJQsqaUBKTNV-1" source="EtcYKkJQAjZfh5iCqZ98-12" target="EtcYKkJQAjZfh5iCqZ98-24">
          <mxGeometry relative="1" as="geometry" />
        </mxCell>
        <mxCell id="EtcYKkJQAjZfh5iCqZ98-12" value="&lt;font color=&quot;#ffffff&quot;&gt;Biblioteca de&lt;br&gt;Sinônimos&lt;/font&gt;" style="sketch=0;aspect=fixed;pointerEvents=1;shadow=0;dashed=0;html=1;strokeColor=#006EAF;labelPosition=center;verticalLabelPosition=bottom;verticalAlign=top;align=center;shape=mxgraph.azure.startup_task;fillColor=#1ba1e2;fontColor=#ffffff;" vertex="1" parent="WIyWlLk6GJQsqaUBKTNV-1">
          <mxGeometry x="724.0000000000001" y="705" width="48" height="50" as="geometry" />
        </mxCell>
        <mxCell id="EtcYKkJQAjZfh5iCqZ98-52" value="" style="edgeStyle=orthogonalEdgeStyle;rounded=0;orthogonalLoop=1;jettySize=auto;html=1;" edge="1" parent="WIyWlLk6GJQsqaUBKTNV-1" source="EtcYKkJQAjZfh5iCqZ98-13" target="EtcYKkJQAjZfh5iCqZ98-50">
          <mxGeometry relative="1" as="geometry" />
        </mxCell>
        <mxCell id="EtcYKkJQAjZfh5iCqZ98-13" value="Power BI&lt;br&gt;ou&lt;br&gt;&lt;div&gt;Grafana&lt;/div&gt;" style="sketch=0;aspect=fixed;pointerEvents=1;shadow=0;dashed=0;html=1;strokeColor=#006EAF;labelPosition=center;verticalLabelPosition=bottom;verticalAlign=top;align=center;fillColor=#1ba1e2;shape=mxgraph.mscae.enterprise.performance_monitor;fontColor=default;" vertex="1" parent="WIyWlLk6GJQsqaUBKTNV-1">
          <mxGeometry x="112.4" y="990" width="55.55" height="40" as="geometry" />
        </mxCell>
        <mxCell id="EtcYKkJQAjZfh5iCqZ98-41" value="" style="edgeStyle=orthogonalEdgeStyle;rounded=0;orthogonalLoop=1;jettySize=auto;html=1;" edge="1" parent="WIyWlLk6GJQsqaUBKTNV-1" source="EtcYKkJQAjZfh5iCqZ98-17" target="EtcYKkJQAjZfh5iCqZ98-11">
          <mxGeometry relative="1" as="geometry" />
        </mxCell>
        <mxCell id="EtcYKkJQAjZfh5iCqZ98-17" value="Reconhecimento&lt;br&gt;compilação" style="image;sketch=0;aspect=fixed;html=1;points=[];align=center;fontSize=12;image=img/lib/mscae/Batch_AI.svg;" vertex="1" parent="WIyWlLk6GJQsqaUBKTNV-1">
          <mxGeometry x="618.0000000000001" y="835" width="36" height="50" as="geometry" />
        </mxCell>
        <mxCell id="EtcYKkJQAjZfh5iCqZ98-33" style="edgeStyle=orthogonalEdgeStyle;rounded=0;orthogonalLoop=1;jettySize=auto;html=1;" edge="1" parent="WIyWlLk6GJQsqaUBKTNV-1">
          <mxGeometry relative="1" as="geometry">
            <mxPoint x="601.0000000000001" y="730.0000000000001" as="sourcePoint" />
            <mxPoint x="526.9653488372094" y="835" as="targetPoint" />
          </mxGeometry>
        </mxCell>
        <mxCell id="EtcYKkJQAjZfh5iCqZ98-24" value="Entendeu ?" style="image;aspect=fixed;html=1;points=[];align=center;fontSize=12;image=img/lib/azure2/internet_of_things/Logic_Apps.svg;" vertex="1" parent="WIyWlLk6GJQsqaUBKTNV-1">
          <mxGeometry x="602.0000000000001" y="696" width="68" height="68" as="geometry" />
        </mxCell>
        <mxCell id="EtcYKkJQAjZfh5iCqZ98-35" value="" style="edgeStyle=orthogonalEdgeStyle;rounded=0;orthogonalLoop=1;jettySize=auto;html=1;" edge="1" parent="WIyWlLk6GJQsqaUBKTNV-1" source="EtcYKkJQAjZfh5iCqZ98-31" target="EtcYKkJQAjZfh5iCqZ98-6">
          <mxGeometry relative="1" as="geometry" />
        </mxCell>
        <mxCell id="EtcYKkJQAjZfh5iCqZ98-38" value="" style="edgeStyle=orthogonalEdgeStyle;rounded=0;orthogonalLoop=1;jettySize=auto;html=1;" edge="1" parent="WIyWlLk6GJQsqaUBKTNV-1" source="EtcYKkJQAjZfh5iCqZ98-31" target="EtcYKkJQAjZfh5iCqZ98-34">
          <mxGeometry relative="1" as="geometry">
            <Array as="points">
              <mxPoint x="260.57" y="595" />
              <mxPoint x="260.57" y="721" />
            </Array>
          </mxGeometry>
        </mxCell>
        <mxCell id="EtcYKkJQAjZfh5iCqZ98-31" value="&lt;font style=&quot;color: rgb(255, 255, 255);&quot;&gt;Query&lt;/font&gt;" style="sketch=0;outlineConnect=0;fontColor=#ffffff;fillColor=#1ba1e2;strokeColor=#006EAF;dashed=0;verticalLabelPosition=bottom;verticalAlign=top;align=center;html=1;fontSize=12;fontStyle=0;aspect=fixed;pointerEvents=1;shape=mxgraph.aws4.redshift_query_editor_v20_light;" vertex="1" parent="WIyWlLk6GJQsqaUBKTNV-1">
          <mxGeometry x="282.40000000000003" y="565" width="60" height="60" as="geometry" />
        </mxCell>
        <mxCell id="EtcYKkJQAjZfh5iCqZ98-40" value="" style="edgeStyle=orthogonalEdgeStyle;rounded=0;orthogonalLoop=1;jettySize=auto;html=1;" edge="1" parent="WIyWlLk6GJQsqaUBKTNV-1" source="EtcYKkJQAjZfh5iCqZ98-34" target="EtcYKkJQAjZfh5iCqZ98-39">
          <mxGeometry relative="1" as="geometry" />
        </mxCell>
        <mxCell id="EtcYKkJQAjZfh5iCqZ98-34" value="Result" style="sketch=0;aspect=fixed;pointerEvents=1;shadow=0;dashed=0;html=1;strokeColor=#006EAF;labelPosition=center;verticalLabelPosition=bottom;verticalAlign=top;align=center;fillColor=#1ba1e2;shape=mxgraph.mscae.enterprise.import_generic;fontColor=#ffffff;" vertex="1" parent="WIyWlLk6GJQsqaUBKTNV-1">
          <mxGeometry x="292.40000000000003" y="696" width="40" height="50" as="geometry" />
        </mxCell>
        <mxCell id="EtcYKkJQAjZfh5iCqZ98-39" value="&lt;font color=&quot;#ffffff&quot;&gt;Formatação&lt;/font&gt;" style="sketch=0;aspect=fixed;pointerEvents=1;shadow=0;dashed=0;html=1;strokeColor=#006EAF;labelPosition=center;verticalLabelPosition=bottom;verticalAlign=top;align=center;shape=mxgraph.azure.startup_task;fillColor=#1ba1e2;fontColor=#ffffff;" vertex="1" parent="WIyWlLk6GJQsqaUBKTNV-1">
          <mxGeometry x="406.2" y="696" width="48" height="50" as="geometry" />
        </mxCell>
        <mxCell id="EtcYKkJQAjZfh5iCqZ98-45" value="" style="edgeStyle=orthogonalEdgeStyle;rounded=0;orthogonalLoop=1;jettySize=auto;html=1;" edge="1" parent="WIyWlLk6GJQsqaUBKTNV-1" source="EtcYKkJQAjZfh5iCqZ98-43" target="EtcYKkJQAjZfh5iCqZ98-31">
          <mxGeometry relative="1" as="geometry" />
        </mxCell>
        <mxCell id="EtcYKkJQAjZfh5iCqZ98-43" value="Lambda" style="sketch=0;aspect=fixed;pointerEvents=1;shadow=0;dashed=0;html=1;strokeColor=#006EAF;labelPosition=center;verticalLabelPosition=bottom;verticalAlign=top;align=center;fillColor=#1ba1e2;shape=mxgraph.azure.script_file;fontColor=default;" vertex="1" parent="WIyWlLk6GJQsqaUBKTNV-1">
          <mxGeometry x="408" y="570" width="47" height="50" as="geometry" />
        </mxCell>
        <mxCell id="EtcYKkJQAjZfh5iCqZ98-44" style="edgeStyle=orthogonalEdgeStyle;rounded=0;orthogonalLoop=1;jettySize=auto;html=1;entryX=1;entryY=0.5;entryDx=0;entryDy=0;entryPerimeter=0;" edge="1" parent="WIyWlLk6GJQsqaUBKTNV-1">
          <mxGeometry relative="1" as="geometry">
            <mxPoint x="599.0000000000001" y="730.0000000000001" as="sourcePoint" />
            <mxPoint x="451.99999999999994" y="595" as="targetPoint" />
            <Array as="points">
              <mxPoint x="527.57" y="730" />
              <mxPoint x="527.57" y="595" />
            </Array>
          </mxGeometry>
        </mxCell>
        <mxCell id="EtcYKkJQAjZfh5iCqZ98-46" style="edgeStyle=orthogonalEdgeStyle;rounded=0;orthogonalLoop=1;jettySize=auto;html=1;entryX=0.05;entryY=0.05;entryDx=0;entryDy=0;entryPerimeter=0;" edge="1" parent="WIyWlLk6GJQsqaUBKTNV-1" source="EtcYKkJQAjZfh5iCqZ98-39" target="EtcYKkJQAjZfh5iCqZ98-7">
          <mxGeometry relative="1" as="geometry" />
        </mxCell>
        <mxCell id="EtcYKkJQAjZfh5iCqZ98-55" value="" style="edgeStyle=orthogonalEdgeStyle;rounded=0;orthogonalLoop=1;jettySize=auto;html=1;" edge="1" parent="WIyWlLk6GJQsqaUBKTNV-1" source="EtcYKkJQAjZfh5iCqZ98-47" target="EtcYKkJQAjZfh5iCqZ98-6">
          <mxGeometry relative="1" as="geometry" />
        </mxCell>
        <mxCell id="EtcYKkJQAjZfh5iCqZ98-47" value="API Gateway" style="sketch=0;html=1;verticalAlign=top;labelPosition=center;verticalLabelPosition=bottom;align=center;spacingTop=-6;fontSize=11;fontStyle=1;fontColor=#FFFFFF;shape=image;aspect=fixed;imageAspect=0;image=data:image/svg+xml,PHN2ZyB4bWxucz0iaHR0cDovL3d3dy53My5vcmcvMjAwMC9zdmciIGhlaWdodD0iMzY3LjgxODMyODg1NzQyMTkiIHZpZXdCb3g9IjcuMTA1NDI3MzU3NjAxMDAyZS0xNSAwIDM2Ni40MTAxODY3Njc1NzgxIDM2Ny44MTgzMjg4NTc0MjE5IiBwcmVzZXJ2ZUFzcGVjdFJhdGlvPSJ4TWlkWU1pZCBtZWV0IiB3aWR0aD0iMzY2LjQxMDE5Njc2NzU3OTEiIHZlcnNpb249IjEuMSIgaWQ9InN2Zzk4NyIgem9vbUFuZFBhbj0ibWFnbmlmeSI+JiN4YTsgIDxwYXRoIGQ9Im0gNDguMjUxOTYsMTExLjUzOTA2IGMgLTcuNjE4NjQsMmUtNCAtMTMuNzk0NzIsNi4xNzYyOCAtMTMuNzk0OTMsMTMuNzk0OTIgMi4xZS00LDcuNjE4NjQgNi4xNzYyOSwxMy43OTQ3MiAxMy43OTQ5MywxMy43OTQ5MiBoIDE0NS4xNDY5MiB2IC0yNy41ODk4NCB6IG0gMjM4LjYwODU5LDU3LjQ1MTE3IGggNjUuNzU0NjkgYyA3LjYxODY0LC0yLjFlLTQgMTMuNzk0NzEsLTYuMTc2MjggMTMuNzk0OTIsLTEzLjc5NDkyIC0yLjFlLTQsLTcuNjE4NjQgLTYuMTc2MjgsLTEzLjc5NDcxIC0xMy43OTQ5MiwtMTMuNzk0OTIgSCAyODQuODUwNiBaIE0gMTMuNzk0OTIsMTcwLjk3NDYxIEMgNi4xNzYyODAxLDE3MC45NzQ4MiAyLjEwMDkxOWUtNCwxNzcuMTUwODkgOS4xODk5MjFlLTgsMTg0Ljc2OTUzIC04LjY5OTA4MWUtNCwxOTIuMzg4OTMgNi4xNzU1MjAxLDE5OC41NjYxOSAxMy43OTQ5MiwxOTguNTY2NCBIIDE5My4zOTg4OCBWIDE3MC45NzQ2MSBaIE0gMjg0LjMwNzgsMjI3LjU2NjQgaCA2OC4zMDc0NCBjIDcuNjE4NjQsLTIuMWUtNCAxMy43OTQ3MSwtNi4xNzYyOCAxMy43OTQ5MiwtMTMuNzk0OTIgLTIuMWUtNCwtNy42MTg2NCAtNi4xNzYyOCwtMTMuNzk0NzEgLTEzLjc5NDkyLC0xMy43OTQ5MiBoIC02NS45MjE3OCB6IG0gLTIzNi4wNTU4NCwxLjY5NzI3IGMgLTcuNjE4NjQsMmUtNCAtMTMuNzk0NzIsNi4xNzYyOCAtMTMuNzk0OTMsMTMuNzk0OTIgMi4xZS00LDcuNjE4NjQgNi4xNzYyOSwxMy43OTQ3MiAxMy43OTQ5MywxMy43OTQ5MiBIIDE5My4zOTg4OCBWIDIyOS4yNjM2NyBaIE0gMTg5LjUyMTQ5LDAgYyAtMjQuNTc0MTEsMCAtNDkuMTY3MzcsMjAuMDU1MDcgLTU5LjQzNzUsNzUuMzczMDQgaCAzMC41ODAwNyBjIDQuNjE2MzMsLTI0LjE2MjA2IDE1LjM0ODk2LC00Ny41MjE0OCAyNy44NTM1MiwtNDcuNTIxNDggMTIuMTU4OCwwIDM5LjQ1ODk4LDU3LjQ1MDQ0IDM5LjQ1ODk4LDE2MC40MTQwNiAwLDY5LjkxNTEzIC0xOS41NzgwOSwxNTIuMTE1MjQgLTQxLjE3MTg3LDE1Mi4xMTUyMyAtMTUuMjY4ODEsMmUtNSAtMjEuMjE2NjgsLTI4LjMzMzU2IC0yNS40NDMzNiwtNDYuNzE4NzQgbCAtMzAuNDE0MDYsLTAuMDY4NCBjIDQuMjIwNzQsMjAuNTQwODcgMTYuOTA3NjgsNzQuMjI0NiA1Ny43MTI4OSw3NC4yMjQ2IDUzLjQzNjcyLDAgNjguOTEyMTEsLTExMS45OTMwNSA2OC45MTIxMSwtMTgwLjQ2Mjg5IEMgMjU3LjU3MjI3LDkzLjgwMDc2IDIzNi41ODM0LDAgMTg5LjUyMTQ5LDAgWiIgc3R5bGU9ImNvbG9yOiMwMDAwMDA7b3BhY2l0eToxO2ZpbGw6IzQyODVmNDtmaWxsLW9wYWNpdHk6MTtzdHJva2UtbGluZWNhcDpyb3VuZDstaW5rc2NhcGUtc3Ryb2tlOm5vbmUiLz4mI3hhOzwvc3ZnPg==;" vertex="1" parent="WIyWlLk6GJQsqaUBKTNV-1">
          <mxGeometry x="117.99999999999997" y="693" width="42" height="42" as="geometry" />
        </mxCell>
        <mxCell id="EtcYKkJQAjZfh5iCqZ98-54" value="" style="edgeStyle=orthogonalEdgeStyle;rounded=0;orthogonalLoop=1;jettySize=auto;html=1;" edge="1" parent="WIyWlLk6GJQsqaUBKTNV-1" source="EtcYKkJQAjZfh5iCqZ98-48" target="EtcYKkJQAjZfh5iCqZ98-47">
          <mxGeometry relative="1" as="geometry" />
        </mxCell>
        <mxCell id="EtcYKkJQAjZfh5iCqZ98-48" value="Lambda" style="sketch=0;aspect=fixed;pointerEvents=1;shadow=0;dashed=0;html=1;strokeColor=#006EAF;labelPosition=center;verticalLabelPosition=bottom;verticalAlign=top;align=center;fillColor=#1ba1e2;shape=mxgraph.azure.script_file;fontColor=default;" vertex="1" parent="WIyWlLk6GJQsqaUBKTNV-1">
          <mxGeometry x="115.49999999999997" y="785" width="47" height="50" as="geometry" />
        </mxCell>
        <mxCell id="EtcYKkJQAjZfh5iCqZ98-51" value="" style="edgeStyle=orthogonalEdgeStyle;rounded=0;orthogonalLoop=1;jettySize=auto;html=1;" edge="1" parent="WIyWlLk6GJQsqaUBKTNV-1" source="EtcYKkJQAjZfh5iCqZ98-49" target="EtcYKkJQAjZfh5iCqZ98-50">
          <mxGeometry relative="1" as="geometry" />
        </mxCell>
        <mxCell id="EtcYKkJQAjZfh5iCqZ98-49" value="Controle de&amp;nbsp;&lt;br&gt;acesso" style="image;aspect=fixed;html=1;points=[];align=center;fontSize=12;image=img/lib/azure2/intune/Azure_AD_Roles_and_Administrators.svg;" vertex="1" parent="WIyWlLk6GJQsqaUBKTNV-1">
          <mxGeometry x="250.57" y="873" width="64" height="64" as="geometry" />
        </mxCell>
        <mxCell id="EtcYKkJQAjZfh5iCqZ98-53" value="" style="edgeStyle=orthogonalEdgeStyle;rounded=0;orthogonalLoop=1;jettySize=auto;html=1;" edge="1" parent="WIyWlLk6GJQsqaUBKTNV-1" source="EtcYKkJQAjZfh5iCqZ98-50" target="EtcYKkJQAjZfh5iCqZ98-48">
          <mxGeometry relative="1" as="geometry" />
        </mxCell>
        <mxCell id="EtcYKkJQAjZfh5iCqZ98-50" value="&lt;span&gt;&lt;font style=&quot;color: rgb(255, 255, 255);&quot;&gt;Interfaces de&lt;br&gt;Autenticação&lt;/font&gt;&lt;/span&gt;" style="sketch=0;outlineConnect=0;fontColor=#ffffff;fillColor=#1ba1e2;strokeColor=#006EAF;dashed=0;verticalLabelPosition=bottom;verticalAlign=top;align=center;html=1;fontSize=12;fontStyle=0;aspect=fixed;pointerEvents=1;shape=mxgraph.aws4.addon;" vertex="1" parent="WIyWlLk6GJQsqaUBKTNV-1">
          <mxGeometry x="100" y="885" width="78" height="40" as="geometry" />
        </mxCell>
        <mxCell id="EtcYKkJQAjZfh5iCqZ98-60" style="edgeStyle=orthogonalEdgeStyle;rounded=0;orthogonalLoop=1;jettySize=auto;html=1;" edge="1" parent="WIyWlLk6GJQsqaUBKTNV-1" source="EtcYKkJQAjZfh5iCqZ98-57" target="EtcYKkJQAjZfh5iCqZ98-6">
          <mxGeometry relative="1" as="geometry" />
        </mxCell>
        <mxCell id="EtcYKkJQAjZfh5iCqZ98-57" value="&lt;font style=&quot;color: rgb(255, 255, 255);&quot;&gt;Query&lt;/font&gt;" style="sketch=0;outlineConnect=0;fontColor=#ffffff;fillColor=#1ba1e2;strokeColor=#006EAF;dashed=0;verticalLabelPosition=bottom;verticalAlign=top;align=center;html=1;fontSize=12;fontStyle=0;aspect=fixed;pointerEvents=1;shape=mxgraph.aws4.redshift_query_editor_v20_light;" vertex="1" parent="WIyWlLk6GJQsqaUBKTNV-1">
          <mxGeometry x="109.00000000000003" y="380" width="60" height="60" as="geometry" />
        </mxCell>
      </root>
    </mxGraphModel>
  </diagram>
</mxfile>
